Coordinates
version=1
nRows=12
nColumns=46
inDegrees=yes

Units are S.I. units (second, meters, Newtons, ...)
Angles are in degrees.

endheader
time	pelvis_tilt	pelvis_list	pelvis_rotation	pelvis_tx	pelvis_ty	pelvis_tz	bb_angle	bb_tx	bb_ty	bb_tz	hip_flexion_r	hip_adduction_r	hip_rotation_r	knee_angle_r	knee_angle_r_beta	ankle_angle_r	subtalar_angle_r	mtp_angle_r	crank_angle_r	hip_flexion_l	hip_adduction_l	hip_rotation_l	knee_angle_l	knee_angle_l_beta	ankle_angle_l	subtalar_angle_l	mtp_angle_l	crank_angle_l	lumbar_extension	lumbar_bending	lumbar_rotation	arm_flex_r	arm_add_r	arm_rot_r	elbow_flex_r	pro_sup_r	wrist_flex_r	wrist_dev_r	arm_flex_l	arm_add_l	arm_rot_l	elbow_flex_l	pro_sup_l	wrist_flex_l	wrist_dev_l
      7.50000000	    -10.32495708	     -3.45061555	     -4.64241480	      0.12102762	      1.13477195	     -0.28232761	      0.00000000	      0.50000000	      0.00000000	      0.25000000	     78.70534808	      4.89014518	      4.01820030	     88.68463886	      1.54783894	      9.71027573	    -10.06515369	      0.00000000	      0.00000000	     46.59193321	    -16.65398153	     -6.25561564	     69.49145475	      1.21285469	     -5.35825778	      0.05572210	      0.00000000	      0.00000000	    -69.68528113	      1.45457179	     -1.70076057	     86.96361319	    -10.61380336	     33.54503595	     69.15112827	     45.58162578	      0.00000000	      0.00000000	     75.93312254	    -33.16504565	     18.39836042	     74.08195158	     51.50053919	      0.00000000	      0.00000000
      7.50500000	    -10.23288896	     -3.30625448	     -4.48954204	      0.12061957	      1.13291082	     -0.28185552	      0.00000000	      0.50000000	      0.00000000	      0.25000000	     76.96529606	      4.81824316	      4.02969196	     86.09552754	      1.50265043	     10.51678876	    -11.04883252	      0.00000000	      0.00000000	     47.85608386	    -16.58971532	     -5.65606924	     72.24423221	      1.26089972	     -5.01469371	     -0.45494206	      0.00000000	      0.00000000	    -69.61067148	      1.37960155	     -1.79199049	     86.60646459	    -10.66021460	     32.84477001	     69.66469297	     45.59377271	      0.00000000	      0.00000000	     75.92677272	    -33.20726922	     18.65476791	     74.24079998	     51.57059962	      0.00000000	      0.00000000
      7.51000000	    -10.00910554	     -2.73309750	     -4.42048723	      0.12036944	      1.13116764	     -0.28129036	      0.00000000	      0.50000000	      0.00000000	      0.25000000	     75.20703555	      4.61520779	      4.49478508	     83.64566419	      1.45989225	     11.25197761	    -11.55064427	      0.00000000	      0.00000000	     48.76012042	    -16.23857204	     -5.53286026	     74.81220626	      1.30571932	     -4.47667261	     -0.93946819	      0.00000000	      0.00000000	    -69.55080584	      0.99410133	     -2.34249804	     86.31121495	    -10.76924323	     32.75282773	     69.75609620	     45.60243773	      0.00000000	      0.00000000	     75.95501046	    -33.11651858	     18.74050966	     74.25905783	     51.58610888	      0.00000000	      0.00000000
      7.51500000	     -9.82397147	     -2.30439772	     -4.28058960	      0.12032375	      1.12953397	     -0.28089278	      0.00000000	      0.50000000	      0.00000000	      0.25000000	     73.64724425	      4.34530878	      4.80342787	     81.33485116	      1.41956095	     11.36331970	    -11.94247270	      0.00000000	      0.00000000	     49.73120000	    -15.96375249	     -5.28789218	     77.31865602	      1.34946512	     -3.90370682	     -1.37760779	      0.00000000	      0.00000000	    -69.53785742	      0.77576887	     -2.71659825	     86.05565763	    -10.83291902	     32.59690540	     69.91005624	     45.61550226	      0.00000000	      0.00000000	     76.00138526	    -33.06442826	     18.86852229	     74.28533493	     51.60810336	      0.00000000	      0.00000000
      7.52000000	     -9.77499107	     -2.01577276	     -4.11938264	      0.12001672	      1.12772574	     -0.28052461	      0.00000000	      0.50000000	      0.00000000	      0.25000000	     72.30587755	      4.11537231	      4.97170764	     79.07850035	      1.38018020	     10.88588963	    -12.67089422	      0.00000000	      0.00000000	     50.91740667	    -15.78233331	     -4.87574487	     79.79031053	      1.39260363	     -3.28186422	     -1.44038271	      0.00000000	      0.00000000	    -69.43201696	      0.58412941	     -2.55001936	     85.60268048	    -11.38700830	     31.76523049	     70.88187507	     45.70520902	      0.00000000	      0.00000000	     76.39727835	    -32.75451876	     19.84893237	     74.10142313	     51.73083742	      0.00000000	      0.00000000
      7.52500000	     -9.56509250	     -1.39151092	     -3.95930206	      0.11981075	      1.12643762	     -0.28015116	      0.00000000	      0.50000000	      0.00000000	      0.25000000	     70.89515272	      3.67161468	      5.48538773	     77.05559560	      1.34487385	     10.61675784	    -12.55765492	      0.00000000	      0.00000000	     51.78525479	    -15.33768913	     -4.83527062	     82.05862267	      1.43219315	     -2.76155154	     -1.72348908	      0.00000000	      0.00000000	    -69.45585851	      0.24696730	     -3.13576727	     85.50436765	    -11.53115233	     31.72998231	     70.88745872	     45.70472023	      0.00000000	      0.00000000	     76.41078529	    -32.58874595	     19.92736404	     74.09526173	     51.73956987	      0.00000000	      0.00000000
      7.53000000	     -9.43492471	     -0.87518029	     -3.80421876	      0.11969241	      1.12536909	     -0.28006399	      0.00000000	      0.50000000	      0.00000000	      0.25000000	     69.57842855	      3.17959120	      5.81011886	     75.02115183	      1.30936611	     10.12115902	    -12.41613736	      0.00000000	      0.00000000	     52.72320047	    -14.97815760	     -4.77657029	     84.25778658	      1.47057580	     -2.07657552	     -2.01761203	      0.00000000	      0.00000000	    -69.49426245	      0.02721216	     -3.55633602	     85.42270670	    -11.65796273	     31.66645560	     70.91724458	     45.70548177	      0.00000000	      0.00000000	     76.52167334	    -32.47499209	     20.00594551	     74.10755700	     51.75004079	      0.00000000	      0.00000000
      7.53500000	     -9.40295382	     -0.88476981	     -3.50098271	      0.11923072	      1.12438451	     -0.27991623	      0.00000000	      0.50000000	      0.00000000	      0.25000000	     68.32178227	      2.88002339	      5.65406126	     72.93623283	      1.27297741	      8.89885582	    -12.94756248	      0.00000000	      0.00000000	     54.00395318	    -14.93357506	     -4.11970831	     86.50197677	      1.50974430	     -1.26237856	     -1.85248308	      0.00000000	      0.00000000	    -69.51687016	      0.22444406	     -3.34144096	     85.42911484	    -11.86090587	     31.34777323	     71.19864562	     45.72237379	      0.00000000	      0.00000000	     76.95065551	    -32.39477624	     20.47628548	     74.02885260	     51.77927238	      0.00000000	      0.00000000
      7.54000000	     -9.49391117	     -0.58366654	     -3.35461337	      0.11911783	      1.12368742	     -0.27960664	      0.00000000	      0.50000000	      0.00000000	      0.25000000	     67.22739163	      2.58059424	      5.90319042	     70.94228408	      1.23817644	      7.69138984	    -13.11264273	      0.00000000	      0.00000000	     55.22075470	    -14.76469463	     -3.86254304	     88.54631583	      1.54542475	     -0.48611756	     -1.79029545	      0.00000000	      0.00000000	    -69.42038790	      0.04255930	     -3.28148031	     85.23511721	    -12.38789069	     31.05850680	     71.69980406	     45.78345797	      0.00000000	      0.00000000	     77.42253222	    -32.10836943	     21.25804931	     73.76799695	     51.80293265	      0.00000000	      0.00000000
      7.54500000	     -9.56199272	     -0.23492388	     -3.17188484	      0.11903250	      1.12345822	     -0.27972154	      0.00000000	      0.50000000	      0.00000000	      0.25000000	     66.09435701	      2.11963130	      6.12945624	     68.94379641	      1.20329625	      6.51608985	    -12.83399659	      0.00000000	      0.00000000	     56.37565971	    -14.47372368	     -3.66671082	     90.45842932	      1.57879743	      0.19872140	     -1.88259695	      0.00000000	      0.00000000	    -69.43802426	     -0.05580650	     -3.51359942	     85.22154460	    -12.56715704	     30.82526293	     71.93198905	     45.79709087	      0.00000000	      0.00000000	     77.75312721	    -31.94161941	     21.39368073	     73.77640930	     51.78932048	      0.00000000	      0.00000000
      7.55000000	     -9.75683819	      0.29861407	     -3.11683327	      0.11935669	      1.12370419	     -0.27982733	      0.00000000	      0.50000000	      0.00000000	      0.25000000	     65.04532394	      1.60724582	      6.51160240	     66.89519993	      1.16754149	      5.38238782	    -12.25273904	      0.00000000	      0.00000000	     57.49167234	    -14.14444978	     -3.72786404	     92.17607959	      1.60877608	      0.86711134	     -2.02519551	      0.00000000	      0.00000000	    -69.28135639	     -0.33717409	     -3.95547956	     84.97033945	    -12.70816723	     30.64091303	     72.06144132	     45.79839949	      0.00000000	      0.00000000	     77.67406925	    -31.79495855	     21.46213298	     73.80430760	     51.77007995	      0.00000000	      0.00000000
      7.55500000	    -10.06606328	      0.29094292	     -2.99209176	      0.11932027	      1.12369707	     -0.27966100	      0.00000000	      0.50000000	      0.00000000	      0.25000000	     63.99497312	      1.48228948	      6.45723577	     64.65832961	      1.12850074	      3.32044049	    -12.99487798	      0.00000000	      0.00000000	     59.03041527	    -14.23933219	     -3.24267554	     94.05185536	      1.64151454	      1.80061850	     -1.51653150	      0.00000000	      0.00000000	    -69.18117744	     -0.26928769	     -3.67001588	     85.01918344	    -13.05528695	     30.41334473	     72.49149356	     45.85152551	      0.00000000	      0.00000000	     78.19549920	    -31.80862172	     22.10165126	     73.82726536	     51.82101788	      0.00000000	      0.00000000
